# xmcd
#
# Track frame offsets:
#	150
#	22178
#	58160
#	76511
#	98377
#	123017
#	143061
#	162125
#
# Disc length: 3127 seconds
# Revision: 0
# Processed by: cddbd v1.5.2PL0 Copyright (c) Steve Scherf et al.
# Submitted via: dBpowerAMP V12.0
#
DISCID=540c3508
DTITLE=Popa Chubby - Electric Chubbyland CD3
DYEAR=2006
DGENRE=Blues
TTITLE0=Manic Depression
TTITLE1=Up From the Skies
TTITLE2=I Don't Live Today
TTITLE3=Isabella
TTITLE4=Burning of the Midnight Lamp
TTITLE5=Highway Chile
TTITLE6=Bold As Love
TTITLE7=San Catri (For Jimi)
EXTD=
EXTT0=
EXTT1=
EXTT2=
EXTT3=
EXTT4=
EXTT5=
EXTT6=
EXTT7=
PLAYORDER=
